<svg width="59" height="59" viewBox="0 0 59 59" fill="none" xmlns="http://www.w3.org/2000/svg">
<g clip-path="url(#clip0)">
<path d="M38.3942 52.2661H44.5815C44.8892 52.2661 45.1843 52.1443 45.4019 51.9276C45.6194 51.7109 45.7417 51.417 45.7417 51.1105C45.7417 50.804 45.6194 50.5101 45.4019 50.2934C45.1843 50.0767 44.8892 49.955 44.5815 49.955H38.3942C38.0865 49.955 37.7914 50.0767 37.5738 50.2934C37.3562 50.5101 37.234 50.804 37.234 51.1105C37.234 51.417 37.3562 51.7109 37.5738 51.9276C37.7914 52.1443 38.0865 52.2661 38.3942 52.2661Z" fill="#FF650C"/>
<path d="M50.7678 6.05946H49.2182C49.063 6.05491 48.9085 6.08142 48.7638 6.13742C48.6192 6.19341 48.4872 6.27777 48.3758 6.38547C48.2645 6.49318 48.1759 6.62205 48.1155 6.76446C48.055 6.90687 48.0239 7.05991 48.0239 7.21452C48.0239 7.36914 48.055 7.52218 48.1155 7.66459C48.1759 7.80699 48.2645 7.93587 48.3758 8.04357C48.4872 8.15128 48.6192 8.23563 48.7638 8.29163C48.9085 8.34763 49.063 8.37414 49.2182 8.36959H50.7678C50.923 8.37414 51.0775 8.34763 51.2222 8.29163C51.3669 8.23563 51.4988 8.15128 51.6102 8.04357C51.7215 7.93587 51.8101 7.80699 51.8705 7.66459C51.931 7.52218 51.9621 7.36914 51.9621 7.21452C51.9621 7.05991 51.931 6.90687 51.8705 6.76446C51.8101 6.62205 51.7215 6.49318 51.6102 6.38547C51.4988 6.27777 51.3669 6.19341 51.2222 6.13742C51.0775 6.08142 50.923 6.05491 50.7678 6.05946Z" fill="#FF650C"/>
<path d="M46.1281 56.6899H4.3696C3.85693 56.6893 3.36543 56.4862 3.00302 56.125C2.6406 55.7639 2.4369 55.2742 2.43663 54.7636V4.23641C2.43716 3.7263 2.64071 3.23721 3.00266 2.87632C3.36461 2.51544 3.85544 2.31219 4.36758 2.31113H7.45972C7.61208 2.31113 7.76295 2.28124 7.90371 2.22317C8.04447 2.1651 8.17236 2.07998 8.2801 1.97267C8.38783 1.86537 8.47329 1.73798 8.53159 1.59778C8.5899 1.45758 8.61991 1.30732 8.61991 1.15557C8.61991 1.00381 8.5899 0.85355 8.53159 0.71335C8.47329 0.57315 8.38783 0.445762 8.2801 0.338457C8.17236 0.231153 8.04447 0.146035 7.90371 0.0879622C7.76295 0.0298896 7.61208 -2.26127e-09 7.45972 0L4.36758 0C3.23986 0.00106141 2.15863 0.447737 1.36121 1.24199C0.563783 2.03624 0.115323 3.11317 0.114258 4.23641L0.114258 54.7636C0.115323 55.8868 0.563783 56.9638 1.36121 57.758C2.15863 58.5523 3.23986 58.9989 4.36758 59H46.1261C46.2812 59.0046 46.4357 58.978 46.5804 58.922C46.7251 58.866 46.8571 58.7817 46.9684 58.674C47.0798 58.5663 47.1683 58.4374 47.2288 58.295C47.2892 58.1526 47.3204 57.9995 47.3204 57.8449C47.3204 57.6903 47.2892 57.5373 47.2288 57.3949C47.1683 57.2525 47.0798 57.1236 46.9684 57.0159C46.8571 56.9082 46.7251 56.8238 46.5804 56.7678C46.4357 56.7118 46.2812 56.6853 46.1261 56.6899H46.1281Z" fill="#FF650C"/>
<path d="M22.9275 13.7615C22.7235 13.7612 22.5231 13.8145 22.3464 13.9161C22.1697 14.0176 22.0231 14.1638 21.9213 14.3398L16.0711 24.4352H9.78114C9.62597 24.4307 9.47147 24.4572 9.32677 24.5132C9.18208 24.5692 9.05014 24.6535 8.93877 24.7612C8.8274 24.869 8.73886 24.9978 8.6784 25.1402C8.61794 25.2826 8.58679 25.4357 8.58679 25.5903C8.58679 25.7449 8.61794 25.898 8.6784 26.0404C8.73886 26.1828 8.8274 26.3116 8.93877 26.4194C9.05014 26.5271 9.18208 26.6114 9.32677 26.6674C9.47147 26.7234 9.62597 26.7499 9.78114 26.7454H16.0711L21.9233 36.8408C22.0251 37.0168 22.1717 37.163 22.3484 37.2645C22.5251 37.3661 22.7255 37.4194 22.9295 37.4191H35.3061C35.5101 37.4194 35.7105 37.3661 35.8872 37.2645C36.0639 37.163 36.2105 37.0168 36.3123 36.8408L42.1645 26.7454H48.4555C48.7571 26.7365 49.0435 26.6109 49.2537 26.3953C49.4639 26.1796 49.5815 25.8909 49.5815 25.5903C49.5815 25.2897 49.4639 25.001 49.2537 24.7853C49.0435 24.5697 48.7571 24.4441 48.4555 24.4352H42.1575L36.3053 14.3398C36.2035 14.1638 36.0568 14.0176 35.8802 13.9161C35.7035 13.8145 35.503 13.7612 35.2991 13.7615H22.9275ZM34.6279 35.1079H23.5976L18.7506 26.7454H22.6437C22.9165 28.2571 23.714 29.6252 24.8969 30.6105C26.0798 31.5959 27.5727 32.1357 29.1148 32.1357C30.6568 32.1357 32.1498 31.5959 33.3327 30.6105C34.5156 29.6252 35.3131 28.2571 35.5858 26.7454H39.4789L34.6279 35.1079ZM33.2041 26.7454C32.9514 27.6326 32.415 28.4134 31.6764 28.9695C30.9377 29.5255 30.0371 29.8263 29.1113 29.8263C28.1854 29.8263 27.2848 29.5255 26.5461 28.9695C25.8075 28.4134 25.2711 27.6326 25.0184 26.7454H33.2041ZM25.0225 24.4342C25.2748 23.5469 25.811 22.7658 26.5496 22.2096C27.2882 21.6533 28.1888 21.3524 29.1148 21.3524C30.0407 21.3524 30.9414 21.6533 31.68 22.2096C32.4186 22.7658 32.9548 23.5469 33.2071 24.4342H25.0225ZM39.4789 24.4342H35.5848C35.3127 22.9222 34.5155 21.5536 33.3326 20.5678C32.1497 19.5821 30.6566 19.042 29.1143 19.042C27.572 19.042 26.0788 19.5821 24.896 20.5678C23.7131 21.5536 22.9159 22.9222 22.6437 24.4342H18.7506L23.5976 16.0727H34.6279L39.4789 24.4342Z" fill="#FF650C"/>
<path d="M36.8466 12.9917C37.0377 12.9918 37.226 12.9448 37.3945 12.8549C37.563 12.765 37.7066 12.6351 37.8126 12.4766L40.5616 8.36746H44.5804C44.7356 8.37201 44.8901 8.3455 45.0348 8.2895C45.1795 8.2335 45.3114 8.14915 45.4228 8.04144C45.5341 7.93374 45.6227 7.80486 45.6831 7.66246C45.7436 7.52005 45.7747 7.36701 45.7747 7.21239C45.7747 7.05777 45.7436 6.90473 45.6831 6.76233C45.6227 6.61992 45.5341 6.49105 45.4228 6.38334C45.3114 6.27563 45.1795 6.19128 45.0348 6.13528C44.8901 6.07928 44.7356 6.05277 44.5804 6.05732H39.9407C39.7498 6.05725 39.5618 6.10414 39.3935 6.19383C39.2251 6.28353 39.0816 6.41325 38.9757 6.57147L35.8826 11.1947C35.7664 11.3687 35.6998 11.5709 35.6897 11.7796C35.6796 11.9883 35.7265 12.1959 35.8254 12.3802C35.9242 12.5645 36.0714 12.7187 36.2512 12.8264C36.431 12.9341 36.6368 12.9912 36.8466 12.9917Z" fill="#FF650C"/>
<path d="M7.45979 12.9909H12.1005C12.4022 12.982 12.6885 12.8564 12.8987 12.6408C13.1089 12.4251 13.2265 12.1364 13.2265 11.8358C13.2265 11.5352 13.1089 11.2465 12.8987 11.0308C12.6885 10.8152 12.4022 10.6896 12.1005 10.6807H7.45979C7.30462 10.6762 7.15012 10.7027 7.00542 10.7587C6.86073 10.8147 6.72879 10.899 6.61742 11.0068C6.50605 11.1145 6.41751 11.2433 6.35705 11.3857C6.29659 11.5281 6.26544 11.6812 6.26544 11.8358C6.26544 11.9904 6.29659 12.1435 6.35705 12.2859C6.41751 12.4283 6.50605 12.5571 6.61742 12.6649C6.72879 12.7726 6.86073 12.8569 7.00542 12.9129C7.15012 12.9689 7.30462 12.9954 7.45979 12.9909Z" fill="#FF650C"/>
<path d="M9.00726 43.0315H7.45968C7.15198 43.0315 6.85689 43.1532 6.63931 43.37C6.42173 43.5867 6.2995 43.8806 6.2995 44.1871C6.2995 44.4935 6.42173 44.7875 6.63931 45.0042C6.85689 45.2209 7.15198 45.3426 7.45968 45.3426H9.00726C9.31496 45.3426 9.61006 45.2209 9.82763 45.0042C10.0452 44.7875 10.1674 44.4935 10.1674 44.1871C10.1674 43.8806 10.0452 43.5867 9.82763 43.37C9.61006 43.1532 9.31496 43.0315 9.00726 43.0315Z" fill="#FF650C"/>
<path d="M9.00726 49.955H7.45968C7.15198 49.955 6.85689 50.0767 6.63931 50.2934C6.42173 50.5101 6.2995 50.804 6.2995 51.1105C6.2995 51.417 6.42173 51.7109 6.63931 51.9276C6.85689 52.1443 7.15198 52.2661 7.45968 52.2661H9.00726C9.31496 52.2661 9.61006 52.1443 9.82763 51.9276C10.0452 51.7109 10.1674 51.417 10.1674 51.1105C10.1674 50.804 10.0452 50.5101 9.82763 50.2934C9.61006 50.0767 9.31496 49.955 9.00726 49.955Z" fill="#FF650C"/>
<path d="M16.7412 6.05946H7.45979C7.30462 6.05491 7.15012 6.08142 7.00542 6.13742C6.86073 6.19341 6.72879 6.27777 6.61742 6.38547C6.50605 6.49318 6.41751 6.62205 6.35705 6.76446C6.29659 6.90687 6.26544 7.05991 6.26544 7.21452C6.26544 7.36914 6.29659 7.52218 6.35705 7.66459C6.41751 7.80699 6.50605 7.93587 6.61742 8.04357C6.72879 8.15128 6.86073 8.23563 7.00542 8.29163C7.15012 8.34763 7.30462 8.37414 7.45979 8.36959H16.7402C17.0419 8.36074 17.3282 8.23516 17.5384 8.01951C17.7487 7.80386 17.8662 7.51511 17.8662 7.21452C17.8662 6.91394 17.7487 6.62519 17.5384 6.40954C17.3282 6.19389 17.0419 6.06831 16.7402 6.05946H16.7412Z" fill="#FF650C"/>
<path d="M53.861 0H12.1026C11.7949 4.56683e-09 11.4998 0.121747 11.2822 0.338457C11.0646 0.555168 10.9424 0.849091 10.9424 1.15557C10.9424 1.46204 11.0646 1.75596 11.2822 1.97267C11.4998 2.18938 11.7949 2.31113 12.1026 2.31113H53.861C54.3736 2.31166 54.8651 2.51464 55.2276 2.87556C55.5902 3.23647 55.7942 3.72586 55.795 4.23641V54.7646C55.7942 55.2751 55.5902 55.7645 55.2276 56.1254C54.8651 56.4864 54.3736 56.6893 53.861 56.6899H50.7679C50.6127 56.6853 50.4582 56.7118 50.3135 56.7678C50.1688 56.8238 50.0369 56.9082 49.9255 57.0159C49.8142 57.1236 49.7256 57.2525 49.6652 57.3949C49.6047 57.5373 49.5736 57.6903 49.5736 57.8449C49.5736 57.9995 49.6047 58.1526 49.6652 58.295C49.7256 58.4374 49.8142 58.5663 49.9255 58.674C50.0369 58.7817 50.1688 58.866 50.3135 58.922C50.4582 58.978 50.6127 59.0046 50.7679 59H53.861C54.9886 58.9989 56.0697 58.5524 56.8671 57.7584C57.6645 56.9643 58.113 55.8877 58.1144 54.7646V4.23641C58.1133 3.11317 57.6648 2.03624 56.8674 1.24199C56.07 0.447737 54.9888 0.00106141 53.861 0V0Z" fill="#FF650C"/>
<path d="M33.7545 49.955H32.2129C31.9052 49.955 31.6101 50.0767 31.3925 50.2934C31.175 50.5101 31.0527 50.804 31.0527 51.1105C31.0527 51.417 31.175 51.7109 31.3925 51.9276C31.6101 52.1443 31.9052 52.2661 32.2129 52.2661H33.7595C34.0672 52.2661 34.3623 52.1443 34.5799 51.9276C34.7974 51.7109 34.9197 51.417 34.9197 51.1105C34.9197 50.804 34.7974 50.5101 34.5799 50.2934C34.3623 50.0767 34.0672 49.955 33.7595 49.955H33.7545Z" fill="#FF650C"/>
<path d="M13.648 45.3427H18.2878C18.4788 45.3427 18.6668 45.2956 18.8351 45.2058C19.0035 45.1159 19.1469 44.986 19.2527 44.8276L22.3459 40.2063C22.4348 40.0802 22.4974 39.9377 22.5302 39.7871C22.563 39.6365 22.5652 39.4809 22.5367 39.3294C22.5082 39.178 22.4496 39.0337 22.3643 38.9052C22.279 38.7766 22.1687 38.6664 22.04 38.5809C21.9113 38.4954 21.7667 38.4364 21.6148 38.4074C21.4629 38.3784 21.3066 38.3799 21.1553 38.4119C21.004 38.4439 20.8606 38.5058 20.7336 38.5938C20.6067 38.6818 20.4986 38.7942 20.4159 38.9245L17.6669 43.0336H13.648C13.3403 43.0336 13.0452 43.1553 12.8277 43.372C12.6101 43.5887 12.4879 43.8827 12.4879 44.1891C12.4879 44.4956 12.6101 44.7895 12.8277 45.0062C13.0452 45.223 13.3403 45.3447 13.648 45.3447V45.3427Z" fill="#FF650C"/>
<path d="M13.648 52.2661H19.8363C20.144 52.2661 20.4391 52.1443 20.6567 51.9276C20.8743 51.7109 20.9965 51.417 20.9965 51.1105C20.9965 50.804 20.8743 50.5101 20.6567 50.2934C20.4391 50.0767 20.144 49.955 19.8363 49.955H13.648C13.3403 49.955 13.0452 50.0767 12.8277 50.2934C12.6101 50.5101 12.4879 50.804 12.4879 51.1105C12.4879 51.417 12.6101 51.7109 12.8277 51.9276C13.0452 52.1443 13.3403 52.2661 13.648 52.2661Z" fill="#FF650C"/>
</g>
<defs>
<clipPath id="clip0">
<rect width="58" height="59" fill="white" transform="translate(0.114258)"/>
</clipPath>
</defs>
</svg>
